<svg width="29" height="30" viewBox="0 0 29 30" fill="none" xmlns="http://www.w3.org/2000/svg">
<path d="M14.178 9.49999C13.0902 9.49999 12.0268 9.82256 11.1223 10.4269C10.2179 11.0313 9.51293 11.8902 9.09664 12.8952C8.68036 13.9002 8.57144 15.0061 8.78366 16.073C8.99588 17.1399 9.5197 18.1199 10.2889 18.8891C11.0581 19.6583 12.0381 20.1821 13.105 20.3943C14.1719 20.6065 15.2777 20.4976 16.2827 20.0813C17.2877 19.665 18.1467 18.9601 18.7511 18.0556C19.3554 17.1512 19.678 16.0878 19.678 15C19.6763 13.5418 19.0963 12.1438 18.0652 11.1127C17.0341 10.0816 15.6362 9.50165 14.178 9.49999V9.49999ZM14.178 18.5C13.4857 18.5 12.8091 18.2947 12.2335 17.9101C11.6579 17.5255 11.2093 16.9789 10.9444 16.3394C10.6795 15.6998 10.6102 14.9961 10.7452 14.3172C10.8803 13.6382 11.2136 13.0146 11.7031 12.5251C12.1926 12.0356 12.8162 11.7023 13.4952 11.5672C14.1741 11.4322 14.8778 11.5015 15.5174 11.7664C16.1569 12.0313 16.7035 12.4799 17.0881 13.0555C17.4727 13.6311 17.678 14.3078 17.678 15C17.6769 15.9279 17.3079 16.8176 16.6517 17.4737C15.9955 18.1299 15.1059 18.4989 14.178 18.5V18.5Z" fill="black"/>
<path d="M27.8998 19.1449L25.9141 17.5104C26.2661 15.8553 26.2661 14.1447 25.9141 12.4896L27.8998 10.8551C28.1288 10.6674 28.2835 10.4044 28.3363 10.1131C28.389 9.82174 28.3363 9.52115 28.1876 9.26513L26.1494 5.73494C26.002 5.47808 25.768 5.2821 25.4893 5.18211C25.2106 5.08213 24.9053 5.08468 24.6283 5.18932L22.2183 6.09225C20.9628 4.95793 19.4816 4.10187 17.872 3.58025L17.4491 1.04457C17.4013 0.752338 17.2509 0.486711 17.0249 0.295298C16.799 0.103885 16.5123 -0.000801048 16.2161 4.61584e-06H12.1398C11.8437 -0.000790795 11.5569 0.103891 11.331 0.295289C11.1051 0.486688 10.9547 0.752292 10.9068 1.0445L10.4841 3.58025C8.87452 4.10186 7.39338 4.95791 6.13789 6.09225L3.72758 5.18919C3.45058 5.08463 3.1454 5.08212 2.86671 5.18211C2.58802 5.2821 2.35405 5.47806 2.20671 5.73488L0.168522 9.26531C0.0198729 9.52135 -0.0327687 9.82195 0.0200253 10.1133C0.0728194 10.4046 0.2276 10.6676 0.456647 10.8552L2.44208 12.4896C2.09008 14.1447 2.09008 15.8553 2.44208 17.5104L0.456459 19.1449C0.227449 19.3326 0.0727107 19.5956 0.019952 19.8869C-0.0328067 20.1782 0.0198603 20.4788 0.168522 20.7349L2.20677 24.2651C2.35413 24.5219 2.58814 24.7179 2.86686 24.8179C3.14559 24.9179 3.45081 24.9153 3.72783 24.8107L6.13796 23.9077C7.39344 25.0421 8.87458 25.8981 10.4842 26.4197L10.9068 28.9554C10.9547 29.2476 11.1051 29.5133 11.331 29.7047C11.5569 29.8961 11.8437 30.0008 12.1398 30H16.2161C16.5123 30.0008 16.799 29.8961 17.0249 29.7047C17.2509 29.5133 17.4013 29.2477 17.4491 28.9555L17.8718 26.4197C19.4814 25.8981 20.9626 25.0421 22.2181 23.9077L24.6283 24.8108C24.9053 24.9154 25.2105 24.9179 25.4892 24.8179C25.7679 24.7179 26.0018 24.5219 26.1492 24.2651L28.1873 20.7347C28.336 20.4787 28.3887 20.1782 28.336 19.8869C28.2833 19.5956 28.1287 19.3326 27.8998 19.1449V19.1449ZM24.735 22.7149L21.7282 21.5884L21.2729 22.0468C20.0202 23.3095 18.4533 24.215 16.7338 24.6701L16.1088 24.8349L15.581 28H12.7754L12.2478 24.8349L11.6228 24.6701C9.90332 24.215 8.33642 23.3095 7.08371 22.0468L6.62839 21.5884L3.62108 22.7149L2.21852 20.2851L4.69533 18.2461L4.52658 17.6228C4.06251 15.9051 4.06251 14.0949 4.52658 12.3772L4.69533 11.7539L2.21852 9.71494L3.6214 7.28507L6.62821 8.41157L7.08352 7.95319C8.33624 6.69054 9.90314 5.78496 11.6226 5.32988L12.2476 5.16513L12.7751 2H15.581L16.1086 5.16513L16.7336 5.32988C18.4531 5.78496 20.02 6.69054 21.2727 7.95319L21.728 8.41157L24.7348 7.28507L26.1378 9.71488L23.6609 11.7539L23.8297 12.3772C24.2938 14.0949 24.2938 15.9051 23.8297 17.6228L23.6609 18.2461L26.1378 20.2851L24.735 22.7149Z" fill="black"/>
</svg>
